<?xml version="1.0"?>
<svg width="640" height="480" xmlns="http://www.w3.org/2000/svg" xmlns:svg="http://www.w3.org/2000/svg">
 <!-- Created with SVG-edit - https://github.com/SVG-Edit/svgedit-->
 <defs>
  <symbol height="680" id="svg_1" viewBox="0 0 789 680" width="789" xmlns="http://www.w3.org/2000/svg">
   <path d="m466.88,30.97c-84.67,41.73 -54.14,147.12 -136.16,193.42c-90.65,51.17 -195.07,-61.5 -269.42,9.74c-77.1,73.88 -48.43,173.66 0,267.18c61.84,119.37 172.26,167.46 311.65,166.28c162.73,-1.37 268.2,-92.54 337.86,-233.08c61.83,-124.75 107.11,-260.84 0,-353.45c-72.25,-62.46 -163.31,-89.83 -243.93,-50.09z" id="svg_4" opacity="0.07" stroke="white"/>
   <path d="m464.29,42.65c-81.64,40.16 -52.2,141.56 -131.29,186.11c-87.41,49.24 -188.09,-59.17 -259.77,9.37c-74.35,71.09 -46.7,167.1 0,257.08c59.61,114.86 166.09,161.13 300.49,160c156.91,-1.32 258.6,-89.05 325.77,-224.27c59.61,-120.03 103.28,-250.98 0,-340.09c-69.67,-60.1 -157.47,-86.44 -235.2,-48.2z" id="svg_5" opacity="0.14" stroke="white"/>
   <path d="m461.7,54.33c-78.61,38.58 -50.27,136 -126.42,178.8c-84.16,47.31 -181.11,-56.85 -250.13,9.01c-71.59,68.29 -44.97,160.53 0,246.97c57.4,110.35 159.93,154.8 289.34,153.72c151.08,-1.27 249.01,-85.55 313.67,-215.46c57.41,-115.32 99.45,-241.12 0,-326.73c-67.07,-57.74 -151.62,-83.04 -226.46,-46.31z" id="svg_6" opacity="0.21" stroke="white"/>
   <path d="m459.1,66.01c-75.58,37.01 -48.32,130.44 -121.54,171.49c-80.92,45.37 -174.12,-54.52 -240.49,8.64c-68.83,65.5 -43.23,153.97 0,236.87c55.19,105.84 153.76,148.48 278.19,147.43c145.26,-1.22 239.41,-82.05 301.58,-206.65c55.19,-110.6 95.62,-231.25 0,-313.36c-64.49,-55.38 -145.78,-79.65 -217.74,-44.42z" id="svg_7" opacity="0.29" stroke="white"/>
   <path d="m456.51,77.7c-72.55,35.42 -46.39,124.87 -116.67,164.17c-77.67,43.44 -167.14,-52.2 -230.85,8.27c-66.06,62.71 -41.5,147.4 0,226.78c52.98,101.32 147.6,142.14 267.04,141.14c139.43,-1.17 229.81,-78.55 289.49,-197.84c52.98,-105.88 91.78,-221.4 0,-300c-61.91,-53.02 -139.93,-76.25 -209.01,-42.52z" id="svg_8" opacity="0.36" stroke="white"/>
   <path d="m453.92,89.38c-69.52,33.85 -44.45,119.31 -111.8,156.86c-74.43,41.5 -160.16,-49.87 -221.2,7.9c-63.31,59.92 -39.77,140.84 0,216.68c50.76,96.81 141.43,135.81 255.88,134.85c133.61,-1.11 220.21,-75.05 277.4,-189.02c50.77,-101.17 87.95,-211.54 0,-286.65c-59.32,-50.65 -134.09,-72.85 -200.28,-40.62z" id="svg_9" opacity="0.43" stroke="white"/>
   <path d="m451.33,101.06c-66.49,32.27 -42.52,113.75 -106.93,149.55c-71.18,39.57 -153.18,-47.55 -211.56,7.53c-60.55,57.13 -38.04,134.28 0,206.58c48.55,92.3 135.27,129.48 244.72,128.57c127.79,-1.06 210.62,-71.55 265.32,-180.21c48.55,-96.46 84.11,-201.68 0,-273.29c-56.74,-48.3 -128.25,-69.45 -191.55,-38.73z" id="svg_10" opacity="0.5" stroke="white"/>
   <path d="m448.73,112.74c-63.45,30.7 -40.57,108.19 -102.05,142.24c-67.94,37.64 -146.2,-45.22 -201.92,7.17c-57.79,54.33 -36.3,127.7 0,196.47c46.34,87.79 129.1,123.15 233.57,122.29c121.97,-1.01 201.02,-68.06 253.22,-171.41c46.35,-91.73 80.29,-191.81 0,-259.92c-54.14,-45.94 -122.4,-66.06 -182.82,-36.84z" id="svg_11" opacity="0.57" stroke="white"/>
   <path d="m446.14,124.42c-60.43,29.12 -38.64,102.63 -97.18,134.93c-64.69,35.7 -139.22,-42.9 -192.28,6.8c-55.03,51.54 -34.57,121.14 0,186.37c44.13,83.28 122.94,116.83 222.42,116c116.14,-0.95 191.42,-64.56 241.13,-162.59c44.13,-87.02 76.45,-181.96 0,-246.56c-51.56,-43.57 -116.55,-62.67 -174.09,-34.95z" id="svg_12" opacity="0.64" stroke="white"/>
   <path d="m443.55,136.11c-57.4,27.53 -36.7,97.06 -92.31,127.61c-61.45,33.77 -132.24,-40.57 -182.64,6.43c-52.27,48.74 -32.83,114.58 0,176.28c41.92,78.76 116.78,110.49 211.27,109.71c110.32,-0.91 181.82,-61.06 229.04,-153.78c41.92,-82.31 72.61,-172.1 0,-233.2c-48.98,-41.22 -110.71,-59.27 -165.36,-33.05z" id="svg_13" opacity="0.71" stroke="white"/>
   <path d="m440.96,147.79c-54.37,25.96 -34.77,91.5 -87.44,120.3c-58.2,31.83 -125.25,-38.25 -172.99,6.06c-49.51,45.95 -31.1,108.02 0,166.18c39.7,74.25 110.61,104.16 200.11,103.43c104.49,-0.86 172.22,-57.57 216.95,-144.97c39.7,-77.6 68.78,-162.24 0,-219.84c-46.39,-38.86 -104.87,-55.88 -156.63,-31.16z" id="svg_14" opacity="0.79" stroke="white"/>
   <path d="m438.37,159.47c-51.34,24.38 -32.83,85.94 -82.56,112.99c-54.97,29.9 -118.28,-35.92 -163.36,5.69c-46.75,43.16 -29.37,101.45 0,156.08c37.49,69.74 104.44,97.83 188.96,97.14c98.67,-0.8 162.62,-54.06 204.86,-136.16c37.49,-72.87 64.95,-152.37 0,-206.47c-43.81,-36.5 -99.02,-52.48 -147.9,-29.27z" id="svg_15" opacity="0.86" stroke="white"/>
   <path d="m435.77,171.15c-48.31,22.81 -30.89,80.38 -77.69,105.68c-51.71,27.96 -111.29,-33.6 -153.71,5.33c-43.99,40.36 -27.63,94.88 0,145.97c35.28,65.23 98.28,91.5 177.81,90.86c92.85,-0.75 153.02,-50.57 192.77,-127.35c35.27,-68.16 61.11,-142.52 0,-193.12c-41.22,-34.13 -93.18,-49.08 -139.18,-27.37z" id="svg_16" opacity="0.93" stroke="white"/>
   <path d="m433.18,182.84c-45.28,21.22 -28.95,74.81 -72.81,98.36c-48.48,26.03 -104.32,-31.27 -144.08,4.96c-41.23,37.57 -25.9,88.32 0,135.88c33.07,60.71 92.12,85.16 166.66,84.57c87.02,-0.7 143.43,-47.07 180.67,-118.54c33.07,-63.45 57.28,-132.66 0,-179.76c-38.63,-31.77 -87.33,-45.68 -130.44,-25.47z" id="svg_17" stroke="white"/>
  </symbol>
 </defs>
 <g class="layer" display="inline">
  <title>Layer 1</title>
  <use fill="#e2e2e2" href="#svg_1" id="svg_2" stroke="#000000" transform="matrix(0.836577 0 0 0.725358 -10.3863 -5.7681)"/>
 </g>
</svg>